<svg width="24" height="24" viewBox="0 0 24 24" fill="none" xmlns="http://www.w3.org/2000/svg">
  <path d="M12 2C12 2 6 8.5 6 13.5C6 16.8 8.7 19.5 12 19.5C15.3 19.5 18 16.8 18 13.5C18 8.5 12 2 12 2Z" fill="#42A5F5" stroke="#424242" stroke-width="1.5" stroke-linecap="round" stroke-linejoin="round"/>
  <path d="M12 2C12 2 6 8.5 6 13.5C6 16.8 8.7 19.5 12 19.5C15.3 19.5 18 16.8 18 13.5C18 8.5 12 2 12 2Z" fill="url(#gradient)" stroke="#424242" stroke-width="1.5" stroke-linecap="round" stroke-linejoin="round"/>
  <ellipse cx="9.5" cy="11" rx="1.2" ry="1.8" fill="rgba(255, 255, 255, 0.4)"/>
  <defs>
    <linearGradient id="gradient" x1="12" y1="2" x2="12" y2="19.5" gradientUnits="userSpaceOnUse">
      <stop offset="0%" stop-color="#64B5F6"/>
      <stop offset="100%" stop-color="#1976D2"/>
    </linearGradient>
  </defs>
</svg>

