<svg width="24" height="24" viewBox="0 0 24 24" fill="none" xmlns="http://www.w3.org/2000/svg">
  <path d="M14 14.76V3.5C14 2.67 13.33 2 12.5 2C11.67 2 11 2.67 11 3.5V14.76C9.78 15.37 9 16.63 9 18C9 20.21 10.79 22 13 22C15.21 22 17 20.21 17 18C17 16.63 16.22 15.37 15 14.76H14Z" fill="#E53935" stroke="#424242" stroke-width="1.5" stroke-linecap="round" stroke-linejoin="round"/>
  <circle cx="12.5" cy="18" r="2.5" fill="#C62828"/>
  <line x1="15.5" y1="5" x2="17.5" y2="5" stroke="#424242" stroke-width="1" stroke-linecap="round"/>
  <line x1="15.5" y1="7" x2="17.5" y2="7" stroke="#424242" stroke-width="1" stroke-linecap="round"/>
  <line x1="15.5" y1="9" x2="17.5" y2="9" stroke="#424242" stroke-width="1" stroke-linecap="round"/>
  <line x1="15.5" y1="11" x2="17.5" y2="11" stroke="#424242" stroke-width="1" stroke-linecap="round"/>
  <line x1="15.5" y1="13" x2="17.5" y2="13" stroke="#424242" stroke-width="1" stroke-linecap="round"/>
  <rect x="11.5" y="8" width="2" height="8" fill="#C62828" rx="1"/>
</svg>

